<svg xmlns="http://www.w3.org/2000/svg" width="1586" height="992" viewBox="0 0 1586 992" fill="none">
  <defs>
    <linearGradient id="bg" x1="115" y1="92" x2="1455" y2="900" gradientUnits="userSpaceOnUse"><stop stop-color="#EFF6FF"/><stop offset="1" stop-color="#CBDCF7"/></linearGradient>
    <filter id="shadow" x="230" y="81" width="1126" height="830" filterUnits="userSpaceOnUse"><feDropShadow dx="0" dy="26" stdDeviation="35" flood-color="#38638F" flood-opacity=".2"/></filter>
  </defs>
  <rect width="1586" height="992" fill="url(#bg)"/>
  <g filter="url(#shadow)"><rect x="300" y="125" width="986" height="742" rx="42" fill="#F8FAFE" fill-opacity=".92"/><rect x="300.5" y="125.5" width="985" height="741" rx="41.5" stroke="#7DAEFF" stroke-opacity=".76"/></g>
  <g fill="#0A7CFF" fill-opacity=".8" font-family="-apple-system, BlinkMacSystemFont, Helvetica, Arial, sans-serif" font-size="19" font-weight="700" text-anchor="middle"><text x="410" y="222">SUN</text><text x="537" y="222">MON</text><text x="664" y="222">TUE</text><text x="791" y="222">WED</text><text x="918" y="222">THU</text><text x="1045" y="222">FRI</text><text x="1172" y="222">SAT</text></g>
  <g fill="#20242C" font-family="-apple-system, BlinkMacSystemFont, Helvetica, Arial, sans-serif" font-size="34" font-weight="500" text-anchor="middle"><text x="410" y="320">1</text><text x="537" y="320">2</text><text x="664" y="320">3</text><text x="791" y="320">4</text><text x="918" y="320">5</text><text x="1045" y="320">6</text><text x="1172" y="320">7</text><text x="410" y="426">8</text><text x="537" y="426">9</text><text x="664" y="426">10</text><text x="791" y="426">11</text><text x="918" y="426">12</text><text x="1045" y="426">13</text><text x="1172" y="426">14</text><text x="410" y="532">15</text><text x="537" y="532">16</text><text x="791" y="532">18</text><text x="918" y="532">19</text><text x="1045" y="532">20</text><text x="1172" y="532">21</text><text x="410" y="638">22</text><text x="537" y="638">23</text><text x="664" y="638">24</text><text x="791" y="638">25</text><text x="918" y="638">26</text><text x="1045" y="638">27</text><text x="1172" y="638">28</text><text x="410" y="744">29</text><text x="537" y="744">30</text><text x="664" y="744">31</text></g>
  <circle cx="664" cy="520" r="39" fill="#0A7CFF"/><text x="664" y="532" fill="white" font-family="-apple-system, BlinkMacSystemFont, Helvetica, Arial, sans-serif" font-size="34" font-weight="500" text-anchor="middle">17</text>
</svg>
